<svg xmlns="http://www.w3.org/2000/svg" width="512" height="512" viewBox="0 0 512 512">
    <path  fill-rule="evenodd" d="M334.973 295.74l104.884 104.884c10.858 10.858 10.856 28.465 0 39.32l.087-.086c-10.858 10.858-28.468 10.852-39.32 0L295.739 334.972c-23.768 16.197-52.488 25.665-83.42 25.665C130.405 360.638 64 294.233 64 212.32 64 130.405 130.405 64 212.32 64c81.913 0 148.318 66.405 148.318 148.32 0 30.93-9.468 59.651-25.665 83.42zm-122.654 17.004c55.463 0 100.425-44.962 100.425-100.425 0-55.463-44.962-100.424-100.425-100.424-55.463 0-100.424 44.961-100.424 100.424 0 55.463 44.961 100.425 100.424 100.425z"/>
</svg>
